<?xml version="1.0" encoding="UTF-8" standalone="no"?>
<svg
   xmlns:dc="http://purl.org/dc/elements/1.1/"
   xmlns:cc="http://creativecommons.org/ns#"
   xmlns:rdf="http://www.w3.org/1999/02/22-rdf-syntax-ns#"
   xmlns:svg="http://www.w3.org/2000/svg"
   xmlns="http://www.w3.org/2000/svg"
   id="svg8"
   version="1.1"
   viewBox="0 0 210 297"
   height="297mm"
   width="210mm">
  <defs
     id="defs2" />
  <metadata
     id="metadata5">
    <rdf:RDF>
      <cc:Work
         rdf:about="">
        <dc:format>image/svg+xml</dc:format>
        <dc:type
           rdf:resource="http://purl.org/dc/dcmitype/StillImage" />
        <dc:title></dc:title>
      </cc:Work>
    </rdf:RDF>
  </metadata>
  <g
     id="layer1">
    <path
       id="path3691"
       d="m 98.942829,221.01131 c -0.642371,-0.12 -3.795826,-0.62367 -7.007679,-1.11927 -17.967514,-2.77251 -36.516883,-11.97706 -50.058423,-24.83995 -15.63807,-14.85434 -23.49656,-29.35262 -27.76572,-51.22547 -2.56805,-13.15733 -2.20259,-20.03284 1.96178,-36.90696 6.06889,-24.591304 25.31984,-47.605834 49.62024,-59.321014 18.251358,-8.79896 39.893733,-12.09138 58.165993,-8.84871 23.63359,4.1941 38.44834,11.52256 54.35525,26.88808 7.64508,7.38489 12.26009,13.45779 16.95704,22.31389 6.66009,12.557564 9.58656,23.466014 10.22947,38.130374 0.51589,11.76728 -0.93026,21.40703 -4.94502,32.96242 -12.95442,37.28576 -50.36936,62.66982 -91.78004,62.2679 -4.71072,-0.0457 -9.090521,-0.1813 -9.732891,-0.30129 z m 21.412351,-4.88662 c 24.11783,-2.81782 47.43347,-15.7356 61.97885,-34.33871 15.66493,-20.03495 21.721,-45.45471 16.56001,-69.50904 -7.72387,-35.999434 -39.43091,-64.205474 -77.76022,-69.174174 -8.4804,-1.09933 -24.83442,-0.30906 -32.957763,1.59261 -19.814458,4.63855 -39.01128,16.47954 -50.70625,31.27666 -12.65683,16.01412 -18.35724,30.609594 -19.25302,49.295944 -0.52729,10.99962 0.32384,18.47014 3.21395,28.20913 2.44553,8.24089 9.22558,21.34241 14.50166,28.02247 19.92968,25.23306 52.051042,38.4073 84.422783,34.62511 z M 87.794519,186.02808 c -0.292136,-0.27852 -0.531155,-1.10054 -0.531155,-1.8267 0,-1.04843 0.761552,-1.36688 3.698497,-1.54655 l 3.698497,-0.22626 0.389316,-4.15447 c 0.610439,-6.51414 0.801125,-6.60954 13.211396,-6.60954 12.44656,0 13.48512,0.48594 13.73294,6.42558 0.0772,1.8492 0.44075,3.64531 0.80799,3.99136 0.36723,0.34604 2.41963,0.73273 4.56086,0.85929 3.29361,0.19469 3.89316,0.45877 3.89316,1.71482 0,1.44401 -0.588,1.49008 -21.46517,1.68178 -11.805846,0.1084 -21.704196,-0.0308 -21.996331,-0.30931 z M 48.427427,165.72426 c -3.43174,-0.77247 -6.33828,-2.8861 -8.27124,-6.01482 -1.47168,-2.38209 -1.57094,-4.09129 -1.80621,-31.1009 -0.29692,-34.087204 -0.1721,-35.515464 3.43657,-39.323694 1.46791,-1.54908 3.62882,-3.19558 4.80202,-3.65889 1.54448,-0.60993 19.145027,-0.7875 63.782563,-0.6435 60.88703,0.19642 61.67604,0.21781 63.79936,1.72944 1.18245,0.84181 2.87232,2.45269 3.75528,3.57973 1.55489,1.98473 1.61226,3.05622 1.82443,34.077694 0.15699,22.95271 -0.0357,32.61485 -0.67992,34.09771 -1.24336,2.86185 -5.53744,6.28254 -9.05609,7.21414 -3.49672,0.92579 -117.485843,0.96619 -121.586763,0.043 z m 122.690013,-7.72881 2.18465,-1.79158 V 125.35288 94.501896 l -1.77331,-1.6909 -1.77331,-1.69089 -59.97891,-0.19911 -59.978913,-0.1991 -2.29018,2.18345 -2.29018,2.18344 v 30.427274 30.42727 l 2.39564,1.92186 2.39563,1.92185 h 59.462113 59.46211 z"
       style="fill:#008080;stroke-width:0.76027167" />
    <text
       transform="scale(0.85668139,1.1672951)"
       id="text3695"
       y="117.66439"
       x="63.229965"
       style="font-style:normal;font-variant:normal;font-weight:bold;font-stretch:normal;font-size:51.61428452px;line-height:1.25;font-family:LilyUPC;-inkscape-font-specification:'LilyUPC, Bold';font-variant-ligatures:normal;font-variant-caps:normal;font-variant-numeric:normal;font-feature-settings:normal;text-align:start;letter-spacing:0px;word-spacing:0px;writing-mode:lr-tb;text-anchor:start;fill:#aa8800;fill-opacity:1;stroke:none;stroke-width:1.29038441"
       xml:space="preserve"><tspan
         style="stroke-width:1.29038441"
         y="117.66439"
         x="63.229965"
         id="tspan3705">&lt;EQR/&gt;</tspan></text>
    <path
       transform="scale(0.26458333)"
       id="path3699"
       d="M 349.41511,830.27323 C 234.16353,809.15771 134.51295,736.87314 87.035554,639.94826 64.164829,593.25777 48.571429,531.52031 48.571429,487.66091 c 0,-23.86531 11.842257,-82.08972 22.92678,-112.72328 29.710411,-82.10872 99.745341,-157.1564 183.120481,-196.2273 123.00322,-57.64126 277.31131,-41.53319 382.09234,39.88624 73.85166,57.38596 118.92097,129.25907 133.21448,212.44023 5.62989,32.76326 5.59675,88.90454 -0.0703,118.77794 -25.879,136.42303 -132.32103,243.32132 -274.88737,276.06569 -43.25746,9.93531 -105.11203,11.80208 -145.55289,4.3928 z m 130.696,-16.23029 c 48.33032,-9.16811 105.42872,-34.38508 145.3592,-64.19651 131.27438,-98.00726 171.81723,-272.047 95.73186,-410.95145 -32.364,-59.08498 -91.71286,-114.83184 -154.05931,-144.70913 -50.09935,-24.0083 -93.44332,-33.59688 -151.42857,-33.49913 -64.98366,0.10956 -103.73332,8.46332 -157.88246,34.03675 -89.68907,42.35814 -161.177007,128.7703 -182.46341,220.55546 -6.43631,27.75284 -9.607049,76.14136 -6.888393,105.1235 8.284753,88.31937 57.747443,174.42854 131.876373,229.58248 37.78061,28.10978 90.50379,51.96472 138.97946,62.88212 40.20448,9.05463 96.752,9.52697 140.77525,1.17591 z"
       style="fill:#ff0000;stroke-width:2.85714293" />
    <path
       transform="scale(0.26458333)"
       id="path3701"
       d="m 183.20801,624.28529 c -12.62953,-3.05675 -23.27757,-11.19855 -30.35087,-23.20712 -5.46362,-9.27579 -5.71428,-14.83988 -5.71428,-126.8442 0,-130.65152 -0.4488,-127.45379 20.08631,-143.11668 l 10.09231,-7.69778 120.62497,-1.18547 c 66.34374,-0.65201 173.64058,-0.14732 238.43744,1.12152 l 117.81248,2.30698 10.75894,10.7592 10.75898,10.7592 0.82968,124.56619 c 0.9284,139.38627 2.0046,131.51612 -19.97371,146.06364 l -11.8624,7.85177 -225.92536,0.47906 c -124.25895,0.26343 -230.26747,-0.57186 -235.57449,-1.85631 z m 466.0777,-27.14742 7.85715,-6.91552 V 473.44049 356.65862 l -7.22589,-6.78836 -7.22588,-6.78836 -227.26444,-1.21469 -227.26445,-1.2147 -9.79539,9.49407 -9.79538,9.49406 V 474.58737 589.5341 l 9.28571,7.31825 9.28572,7.31825 227.14285,-0.0586 227.14286,-0.0586 7.85714,-6.91552 z"
       style="fill:#008080;stroke-width:2.85714293" />
    <path
       transform="scale(0.26458333)"
       id="path3703"
       d=""
       style="fill:#ff0000;stroke-width:2.85714293" />
  </g>
</svg>
